<svg id="Layer_1" data-name="Layer 1" xmlns="http://www.w3.org/2000/svg" viewBox="0 0 252.64 77.97"><defs><style>.cls-1,.cls-2{fill:#231f20;}.cls-2{font-size:18.56px;font-family:IBMPlexSans, IBM Plex Sans;}</style></defs><title>Brian-logo-new</title><path class="cls-1" d="M6.67,12.92H18.8q7.11,0,11.12,3.32a11.37,11.37,0,0,1,4,9.25A12.57,12.57,0,0,1,32,32.32,13,13,0,0,1,26.82,37a16.43,16.43,0,0,1-7.58,1.69H6.67l-.13-2.19,2.81-.71a10.62,10.62,0,0,0,.22-2.22c.06-1.27.09-2.79.09-4.54V22.63q0-2.77-.09-4.68a9,9,0,0,0-.22-2.13l-2.81-.7Zm9,2.94c0,.18,0,.55,0,1.12s0,1.32-.05,2.24,0,2.06,0,3.41v6.42c0,.76,0,1.56,0,2.39s.05,1.6.09,2.31.08,1.26.11,1.67c.67.12,1.34.21,2,.28a15.44,15.44,0,0,0,1.87.11,7.12,7.12,0,0,0,5.64-2.15c1.28-1.43,1.92-3.71,1.92-6.81a16.91,16.91,0,0,0-.71-5.23,9.17,9.17,0,0,0-1.93-3.47,7.61,7.61,0,0,0-2.81-1.94,9.31,9.31,0,0,0-3.39-.61q-.62,0-1.32.06C16.62,15.71,16.15,15.77,15.68,15.86Z" transform="translate(-6.54 -8.08)"/><path class="cls-1" d="M37,38.71l-.13-2L39.54,36a6.19,6.19,0,0,0,.09-.82c0-.42.06-1,.09-1.58s0-1.3,0-2l0-3.3c0-.87,0-1.66-.08-2.35a20.59,20.59,0,0,0-.31-2.17l-2.81-.62v-2l7.6-2,1.19.75-.18,3.47.13,0a8.64,8.64,0,0,1,2.53-3.34,4.77,4.77,0,0,1,2.7-.88,3.37,3.37,0,0,1,2.07.66,2.44,2.44,0,0,1,.88,2.07,2.7,2.7,0,0,1-1,2.19,3.39,3.39,0,0,1-2.26.8,4.69,4.69,0,0,1-1.89-.36,5.8,5.8,0,0,1-1.8-1.31l1.23.08a6.52,6.52,0,0,0-1.3,1.23,9.9,9.9,0,0,0-1.08,1.72l.05,3.47c0,1.08.06,2.06.09,2.92s0,1.58.08,2.15.05,1,.05,1.13l3.82.65-.13,2.11Z" transform="translate(-6.54 -8.08)"/><path class="cls-1" d="M67.09,35.81a9.9,9.9,0,0,0,.22-2.22c.06-1.27.09-2.79.09-4.54V22.63q0-2.77-.09-4.68a8.42,8.42,0,0,0-.22-2.13l-2.81-.75.13-2.15H76.89q4.67,0,6.93,1.54a5.25,5.25,0,0,1,2.26,4.65A5,5,0,0,1,84,23.16,9.76,9.76,0,0,1,78.48,25l.26-.35a11.27,11.27,0,0,1,6.42,1.89,5.52,5.52,0,0,1,2.24,4.62,6.32,6.32,0,0,1-3,5.55c-2,1.34-4.81,2-8.42,2H64.41l-.13-2.19Zm6.2-4.87c0,1.17,0,2.19,0,3.05s.06,1.46.09,1.78a5.88,5.88,0,0,0,1.23.29,11.17,11.17,0,0,0,1.45.11A5.27,5.27,0,0,0,79.77,35a4.1,4.1,0,0,0,1.3-3.23,4.5,4.5,0,0,0-1.41-3.67,6.92,6.92,0,0,0-4.44-1.16H73.91a9.91,9.91,0,0,0-1.19.08v-2.9l1.16.07c.34,0,.71,0,1.12,0a4.9,4.9,0,0,0,3.56-1.16,4.48,4.48,0,0,0,1.19-3.36,4.29,4.29,0,0,0-1.16-3.15A4.92,4.92,0,0,0,75,15.38H73.38c0,.26,0,.89-.07,1.87s0,2.13,0,3.45Z" transform="translate(-6.54 -8.08)"/><path class="cls-1" d="M90.17,38.71l-.14-2L92.76,36a6.19,6.19,0,0,0,.09-.82c0-.42.06-1,.08-1.58s0-1.3,0-2l0-3.3c0-.87,0-1.66-.09-2.35a20.45,20.45,0,0,0-.3-2.17l-2.82-.62v-2l7.61-2,1.18.75-.17,3.47.13,0a8.64,8.64,0,0,1,2.53-3.34,4.77,4.77,0,0,1,2.7-.88,3.32,3.32,0,0,1,2.06.66,2.41,2.41,0,0,1,.88,2.07,2.69,2.69,0,0,1-.94,2.19,3.41,3.41,0,0,1-2.26.8,4.69,4.69,0,0,1-1.89-.36,5.94,5.94,0,0,1-1.81-1.31l1.23.08a6.48,6.48,0,0,0-1.29,1.23,9.34,9.34,0,0,0-1.08,1.72l0,3.47c0,1.08.05,2.06.08,2.92s.06,1.58.09,2.15,0,1,0,1.13l3.82.65-.13,2.11Z" transform="translate(-6.54 -8.08)"/><path class="cls-1" d="M108,38.71l-.13-2.06,2.94-.7a6.19,6.19,0,0,0,.09-.82c0-.42.06-1,.09-1.58s0-1.3,0-2l0-3.3c0-.87,0-1.66-.08-2.35s-.17-1.41-.31-2.17l-3-.62v-2l8.09-2,1.19.75c-.09.93-.16,1.88-.2,2.83s-.07,2-.07,3.23v5.54c0,1,0,1.89.07,2.77A7,7,0,0,0,117,36l2.9.7-.13,2.06Zm6-23.16a3.56,3.56,0,1,1,0-7.11,3.44,3.44,0,0,1,2.75,1.07,3.73,3.73,0,0,1,0,5A3.44,3.44,0,0,1,114,15.55Z" transform="translate(-6.54 -8.08)"/><path class="cls-1" d="M128.71,39.07a6.76,6.76,0,0,1-3.5-.88A6.53,6.53,0,0,1,123,36.08a4.46,4.46,0,0,1-.77-2.33,3.74,3.74,0,0,1,1-2.68,6.7,6.7,0,0,1,3.06-1.67l6.89-2V25.79a2.85,2.85,0,0,0-.59-1.73A4.55,4.55,0,0,0,131,22.72a4.24,4.24,0,0,0-2.06-.53,1.25,1.25,0,0,0-1,.33,2.43,2.43,0,0,0-.38,1.3l-.22,2.68a6.07,6.07,0,0,1-3.58-.16,2,2,0,0,1-1.38-1.95,2.5,2.5,0,0,1,.88-1.72A11,11,0,0,1,125.43,21a18.27,18.27,0,0,1,2.66-1.32,8.39,8.39,0,0,1,2.42-.64,9.81,9.81,0,0,1,6.17,1.78A5.72,5.72,0,0,1,139,25.62l-.13,6.11c0,.82,0,1.45.06,1.91a3.26,3.26,0,0,0,.29,1.12l2.86.53v1.84l-2.86,1.28a12.65,12.65,0,0,1-1.43.48,5.08,5.08,0,0,1-1.3.18,2.46,2.46,0,0,1-2.41-1.76l-.75-2,.92.22a12.9,12.9,0,0,1-2.79,2.61A5,5,0,0,1,128.71,39.07Zm2.24-4a3,3,0,0,0,1.18-.24,3.2,3.2,0,0,0,1.06-.73v-4.3l-3,.52a2.64,2.64,0,0,0-1.54.71,1.93,1.93,0,0,0-.48,1.36A2.58,2.58,0,0,0,129,34.3,2.68,2.68,0,0,0,131,35.11Z" transform="translate(-6.54 -8.08)"/><path class="cls-1" d="M143.25,38.71l-.13-2,2.72-.74a6.19,6.19,0,0,0,.09-.8q0-.61.09-1.56c0-.63,0-1.31,0-2l.05-3.34c0-.91,0-1.69-.09-2.35a20.67,20.67,0,0,0-.31-2.13l-2.81-.62v-2l7.73-2,1.24.75-.27,2.59.13,0a9.35,9.35,0,0,1,3-2.61,7.41,7.41,0,0,1,3.45-.86,6.09,6.09,0,0,1,5.74,3.63,9.78,9.78,0,0,1,.86,4.28v4.53c0,1,0,1.92,0,2.79A7.5,7.5,0,0,0,165,36l2.73.74-.13,2h-11l-.13-2,2.5-.74a9,9,0,0,0,.13-1.15c0-.47.05-1,.07-1.58s0-1.14,0-1.67V27.86a6.29,6.29,0,0,0-.5-2.7,3.5,3.5,0,0,0-1.32-1.52,3.55,3.55,0,0,0-1.83-.48,4.55,4.55,0,0,0-2.06.48,5.1,5.1,0,0,0-1.72,1.41v6.46c0,1,0,1.92.07,2.79A6.88,6.88,0,0,0,152,36l2.63.74-.13,2Z" transform="translate(-6.54 -8.08)"/><path class="cls-1" d="M198.84,39c-.76-.09-1.58-.15-2.46-.17l-2.52-.09c-.81,0-1.45,0-1.92,0H178.63l-.13-2.19,2.81-.71a5.22,5.22,0,0,0,.13-1.21q0-1,.09-2.46c0-1,0-2,0-3.09V22.63c0-1.14,0-2.2,0-3.19s-.06-1.79-.09-2.44a4.41,4.41,0,0,0-.13-1.14l-2.81-.74.13-2.2h12.7l.13,2.28-3.65.66a9.37,9.37,0,0,0-.11,1.06c0,.61-.08,1.41-.11,2.39s0,2.09,0,3.32v6.42c0,1.7,0,3.07,0,4.1s.06,1.76.09,2.14a15.2,15.2,0,0,0,1.56.17c.54,0,1.19,0,2,0h1.67a14.75,14.75,0,0,0,1.69-.09c.51-.06.93-.12,1.25-.18l2.46-4.79,2.68.66Z" transform="translate(-6.54 -8.08)"/><path class="cls-1" d="M213,39.07a11.16,11.16,0,0,1-5.4-1.26,9.24,9.24,0,0,1-3.65-3.47,9.73,9.73,0,0,1-1.32-5.07,9.87,9.87,0,0,1,1.5-5.54A9.69,9.69,0,0,1,208,20.26a11.51,11.51,0,0,1,5.14-1.19,10.47,10.47,0,0,1,5.16,1.23,8.79,8.79,0,0,1,3.47,3.45,10.1,10.1,0,0,1,1.26,5.08,10,10,0,0,1-1.37,5.2,10.19,10.19,0,0,1-3.62,3.67A9.64,9.64,0,0,1,213,39.07Zm.44-2.82a2.65,2.65,0,0,0,1.87-.7,4.59,4.59,0,0,0,1.19-2.07,11.43,11.43,0,0,0,.41-3.25,13.63,13.63,0,0,0-1.2-6.15c-.81-1.58-1.89-2.37-3.23-2.37a3,3,0,0,0-2.62,1.69,9.09,9.09,0,0,0-1,4.59,13.92,13.92,0,0,0,.6,4.22,7.37,7.37,0,0,0,1.62,3A3.2,3.2,0,0,0,213.43,36.25Z" transform="translate(-6.54 -8.08)"/><path class="cls-1" d="M225.39,38.71l-.14-2L228,36c0-.33.06-.89.11-1.7s.08-1.73.11-2.79,0-2.08,0-3.07V22.85c0-1,0-2,0-3s0-2,0-2.9,0-1.77-.07-2.53S228,13,228,12.57l-3.25-.44-.09-1.89,8.3-2.16,1.23.75c0,.91-.07,1.79-.13,2.64s-.09,1.78-.11,2.79,0,2.17-.06,3.47-.06,2.88-.09,4.72l.13.05a9.62,9.62,0,0,1,3-2.57,7.27,7.27,0,0,1,3.43-.86,6.35,6.35,0,0,1,3.38.92,6.27,6.27,0,0,1,2.35,2.71,9.78,9.78,0,0,1,.86,4.28v4.53q0,1.48.06,2.79a12.12,12.12,0,0,0,.16,1.65l2.72.74-.13,2h-11l-.14-2,2.46-.74a8.8,8.8,0,0,0,.14-1.15c0-.47,0-1,.06-1.58s0-1.14,0-1.67V27.86a6.14,6.14,0,0,0-.5-2.7,3.31,3.31,0,0,0-3.14-2,4.59,4.59,0,0,0-2.07.48,5.16,5.16,0,0,0-1.71,1.41v6.46q0,1.62.06,2.85a7.12,7.12,0,0,0,.2,1.59l2.64.74-.13,2Z" transform="translate(-6.54 -8.08)"/><path class="cls-1" d="M17.21,53.17h-.09L16,55.31l-3,5.55L9.94,55.31,8.86,53.17H8.77V63.91H7.27V51.16H9.32L13,58h.09l3.68-6.87h2V63.91h-1.5Z" transform="translate(-6.54 -8.08)"/><path class="cls-1" d="M22.89,64.13a1.12,1.12,0,0,1-.85-.29,1.14,1.14,0,0,1-.26-.77v-.24a1.11,1.11,0,0,1,.26-.76,1.08,1.08,0,0,1,.85-.3A1,1,0,0,1,24,62.83v.24a1,1,0,0,1-1.12,1.06Z" transform="translate(-6.54 -8.08)"/><path class="cls-1" d="M27.08,51.16h5.24a3.44,3.44,0,0,1,2.5.89,3.67,3.67,0,0,1,.7,3.6,2.5,2.5,0,0,1-.51.81,2,2,0,0,1-.68.48,3.62,3.62,0,0,1-.67.21v.11a2.43,2.43,0,0,1,.77.18,2.7,2.7,0,0,1,.82.52,3,3,0,0,1,.64.92,3,3,0,0,1,.27,1.34,4.11,4.11,0,0,1-.25,1.46,3.57,3.57,0,0,1-.68,1.17,3.31,3.31,0,0,1-1,.78,3.1,3.1,0,0,1-1.32.28H27.08Zm1.53,5.51h3.53a2.07,2.07,0,0,0,1.42-.45,1.7,1.7,0,0,0,.52-1.32v-.62A1.66,1.66,0,0,0,33.56,53a2,2,0,0,0-1.42-.46H28.61Zm0,5.89h3.78a2.3,2.3,0,0,0,1.56-.5,1.86,1.86,0,0,0,.56-1.47V60A1.86,1.86,0,0,0,34,58.49a2.3,2.3,0,0,0-1.56-.5H28.61Z" transform="translate(-6.54 -8.08)"/><path class="cls-1" d="M39.52,64.13a1.12,1.12,0,0,1-.85-.29,1.09,1.09,0,0,1-.26-.77v-.24a1.06,1.06,0,0,1,.26-.76,1.35,1.35,0,0,1,1.7,0,1.07,1.07,0,0,1,.27.76v.24a1.1,1.1,0,0,1-.27.77A1.12,1.12,0,0,1,39.52,64.13Z" transform="translate(-6.54 -8.08)"/><path class="cls-1" d="M43.71,51.16H49a3.4,3.4,0,0,1,2.49.89,3.21,3.21,0,0,1,.91,2.4,3.27,3.27,0,0,1-.2,1.2,2.68,2.68,0,0,1-.51.81,2,2,0,0,1-.68.48,3.48,3.48,0,0,1-.68.21v.11a2.58,2.58,0,0,1,1.59.7,2.87,2.87,0,0,1,.65.92,3,3,0,0,1,.27,1.34,4.34,4.34,0,0,1-.25,1.46,3.57,3.57,0,0,1-.68,1.17,3.24,3.24,0,0,1-1,.78,3,3,0,0,1-1.31.28H43.71Zm1.53,5.51h3.53a2.07,2.07,0,0,0,1.42-.45,1.7,1.7,0,0,0,.51-1.32v-.62A1.66,1.66,0,0,0,50.19,53a2,2,0,0,0-1.42-.46H45.24Zm0,5.89H49a2.3,2.3,0,0,0,1.56-.5,1.9,1.9,0,0,0,.56-1.47V60a1.9,1.9,0,0,0-.56-1.47A2.3,2.3,0,0,0,49,58H45.24Z" transform="translate(-6.54 -8.08)"/><path class="cls-1" d="M56.15,64.13a1.12,1.12,0,0,1-.85-.29,1.1,1.1,0,0,1-.27-.77v-.24a1.07,1.07,0,0,1,.27-.76,1.35,1.35,0,0,1,1.7,0,1.11,1.11,0,0,1,.26.76v.24a1.14,1.14,0,0,1-.26.77A1.12,1.12,0,0,1,56.15,64.13Z" transform="translate(-6.54 -8.08)"/><path class="cls-1" d="M63.91,64.13A5.25,5.25,0,0,1,59.4,61.9L60.53,61A4.89,4.89,0,0,0,62,62.31a3.9,3.9,0,0,0,1.94.47,3,3,0,0,0,2.09-.66,2.26,2.26,0,0,0,.72-1.75A1.82,1.82,0,0,0,66.24,59a4.21,4.21,0,0,0-1.81-.79l-1.05-.23a6.09,6.09,0,0,1-2.67-1.22,2.88,2.88,0,0,1-.93-2.29,3.44,3.44,0,0,1,.32-1.5,2.91,2.91,0,0,1,.86-1.1,4,4,0,0,1,1.34-.66A5.75,5.75,0,0,1,64,50.94a5.27,5.27,0,0,1,2.47.53A4.79,4.79,0,0,1,68.23,53l-1.15.84a4,4,0,0,0-1.28-1.15,3.78,3.78,0,0,0-1.87-.42,3.18,3.18,0,0,0-1.93.52,1.84,1.84,0,0,0-.7,1.56,1.64,1.64,0,0,0,.6,1.38,4.49,4.49,0,0,0,1.8.74l1,.24A5.44,5.44,0,0,1,67.46,58a3.11,3.11,0,0,1,.84,2.28,4,4,0,0,1-.3,1.59,3.21,3.21,0,0,1-.87,1.21,4.19,4.19,0,0,1-1.38.77A5.79,5.79,0,0,1,63.91,64.13Z" transform="translate(-6.54 -8.08)"/><path class="cls-1" d="M71.74,61.77a1.08,1.08,0,0,1,.85.3,1.18,1.18,0,0,1,.26.78v.26a3.85,3.85,0,0,1-.44,1.65,4.9,4.9,0,0,1-1.22,1.58H70a8.6,8.6,0,0,0,.89-1.1,3.6,3.6,0,0,0,.48-1.16,1,1,0,0,1-.54-.35,1.13,1.13,0,0,1-.17-.62v-.26a1.14,1.14,0,0,1,.27-.78A1.07,1.07,0,0,1,71.74,61.77Z" transform="translate(-6.54 -8.08)"/><path class="cls-1" d="M80.23,63.91V51.16h7.6v1.35H81.77v4.27H87.3v1.36H81.77v5.77Z" transform="translate(-6.54 -8.08)"/><path class="cls-1" d="M89.77,64.13a1.12,1.12,0,0,1-.85-.29,1.09,1.09,0,0,1-.26-.77v-.24a1.06,1.06,0,0,1,.26-.76,1.35,1.35,0,0,1,1.7,0,1.07,1.07,0,0,1,.27.76v.24a1.1,1.1,0,0,1-.27.77A1.12,1.12,0,0,1,89.77,64.13Z" transform="translate(-6.54 -8.08)"/><path class="cls-1" d="M95.49,63.91H94V51.16H99a3.58,3.58,0,0,1,2.63.93,3.64,3.64,0,0,1,.94,2.68,3.93,3.93,0,0,1-.65,2.32A3.09,3.09,0,0,1,100,58.28L103,63.91h-1.73l-2.76-5.48h-3ZM99,57.11a2,2,0,0,0,1.42-.47,1.76,1.76,0,0,0,.5-1.35v-.95a1.77,1.77,0,0,0-.5-1.36A2,2,0,0,0,99,52.51H95.49v4.6Z" transform="translate(-6.54 -8.08)"/><path class="cls-1" d="M106.44,64.13a1,1,0,0,1-1.12-1.06v-.24a1.07,1.07,0,0,1,.27-.76,1.34,1.34,0,0,1,1.69,0,1.07,1.07,0,0,1,.27.76v.24a1,1,0,0,1-1.11,1.06Z" transform="translate(-6.54 -8.08)"/><path class="cls-1" d="M118.88,63.91l-1.28-3.76h-5.15l-1.28,3.76h-1.56l4.46-12.75h2l4.46,12.75Zm-3.82-11.33H115l-2.16,6.21h4.41Z" transform="translate(-6.54 -8.08)"/><path class="cls-1" d="M123.67,64.13a1,1,0,0,1-1.12-1.06v-.24a1,1,0,0,1,1.12-1.06,1.08,1.08,0,0,1,.85.3,1.11,1.11,0,0,1,.26.76v.24a1.14,1.14,0,0,1-.26.77A1.12,1.12,0,0,1,123.67,64.13Z" transform="translate(-6.54 -8.08)"/><path class="cls-1" d="M131.8,64.13A4.61,4.61,0,0,1,128,62.48a7.52,7.52,0,0,1-1.36-4.87,7.84,7.84,0,0,1,1.36-5,4.52,4.52,0,0,1,3.78-1.72,4.46,4.46,0,0,1,4.38,2.77l-1.24.75a3.67,3.67,0,0,0-1.17-1.58,3.2,3.2,0,0,0-2-.59,3.31,3.31,0,0,0-1.47.31,3.07,3.07,0,0,0-1.1.89,4,4,0,0,0-.68,1.38,6.13,6.13,0,0,0-.24,1.78v1.91a4.77,4.77,0,0,0,.91,3.1,3.13,3.13,0,0,0,2.58,1.12,3.24,3.24,0,0,0,2-.63,3.68,3.68,0,0,0,1.21-1.67l1.22.76a4.92,4.92,0,0,1-1.73,2.12A4.8,4.8,0,0,1,131.8,64.13Z" transform="translate(-6.54 -8.08)"/><path class="cls-1" d="M139.44,64.13a1,1,0,0,1-1.12-1.06v-.24a1,1,0,0,1,1.12-1.06,1,1,0,0,1,.84.3,1.07,1.07,0,0,1,.27.76v.24a1.1,1.1,0,0,1-.27.77A1.08,1.08,0,0,1,139.44,64.13Z" transform="translate(-6.54 -8.08)"/><path class="cls-1" d="M147.2,64.13a5.21,5.21,0,0,1-4.51-2.23l1.13-.95a4.89,4.89,0,0,0,1.5,1.36,3.87,3.87,0,0,0,1.94.47,3,3,0,0,0,2.09-.66,2.26,2.26,0,0,0,.72-1.75,1.79,1.79,0,0,0-.55-1.41,4.15,4.15,0,0,0-1.81-.79l-1-.23A6.13,6.13,0,0,1,144,56.72a2.91,2.91,0,0,1-.92-2.29,3.44,3.44,0,0,1,.31-1.5,3,3,0,0,1,.87-1.1,3.86,3.86,0,0,1,1.33-.66,5.8,5.8,0,0,1,1.71-.23,5.31,5.31,0,0,1,2.48.53A4.68,4.68,0,0,1,151.51,53l-1.15.84a3.9,3.9,0,0,0-1.28-1.15,3.76,3.76,0,0,0-1.86-.42,3.16,3.16,0,0,0-1.93.52,1.82,1.82,0,0,0-.7,1.56,1.66,1.66,0,0,0,.59,1.38,4.62,4.62,0,0,0,1.8.74l1,.24A5.48,5.48,0,0,1,150.75,58a3.11,3.11,0,0,1,.84,2.28,4,4,0,0,1-.31,1.59,3.3,3.3,0,0,1-.86,1.21,4.19,4.19,0,0,1-1.38.77A5.88,5.88,0,0,1,147.2,64.13Z" transform="translate(-6.54 -8.08)"/><path class="cls-1" d="M155.05,61.77a1.07,1.07,0,0,1,.85.3,1.14,1.14,0,0,1,.27.78v.26a3.85,3.85,0,0,1-.44,1.65,4.8,4.8,0,0,1-1.23,1.58h-1.22a8.6,8.6,0,0,0,.89-1.1,3.84,3.84,0,0,0,.48-1.16,1,1,0,0,1-.54-.35,1.13,1.13,0,0,1-.17-.62v-.26a1.18,1.18,0,0,1,.26-.78A1.08,1.08,0,0,1,155.05,61.77Z" transform="translate(-6.54 -8.08)"/><path class="cls-1" d="M178,64.13a1,1,0,0,1-1.12-1.06v-.24A1,1,0,0,1,178,61.77a1,1,0,0,1,.84.3,1.07,1.07,0,0,1,.27.76v.24a1.1,1.1,0,0,1-.27.77A1.08,1.08,0,0,1,178,64.13Z" transform="translate(-6.54 -8.08)"/><path class="cls-1" d="M190.47,63.91l-1.28-3.76H184l-1.28,3.76h-1.55l4.45-12.75h2l4.46,12.75Zm-3.82-11.33h-.09l-2.16,6.21h4.41Z" transform="translate(-6.54 -8.08)"/><path class="cls-1" d="M195.26,64.13a1,1,0,0,1-1.12-1.06v-.24a1,1,0,0,1,1.12-1.06,1.08,1.08,0,0,1,.85.3,1.11,1.11,0,0,1,.26.76v.24a1.14,1.14,0,0,1-.26.77A1.12,1.12,0,0,1,195.26,64.13Z" transform="translate(-6.54 -8.08)"/><path class="cls-1" d="M203.66,64.13a5.56,5.56,0,0,1-2.24-.43,4.47,4.47,0,0,1-1.69-1.26,5.51,5.51,0,0,1-1.09-2.07,10.5,10.5,0,0,1,0-5.67,5.71,5.71,0,0,1,1.09-2.06,4.39,4.39,0,0,1,1.69-1.27,6,6,0,0,1,4.47,0,4.46,4.46,0,0,1,1.71,1.27,6,6,0,0,1,1.09,2.06,10.77,10.77,0,0,1,0,5.67,5.81,5.81,0,0,1-1.09,2.07,4.54,4.54,0,0,1-1.71,1.26A5.54,5.54,0,0,1,203.66,64.13Zm0-1.35a3.78,3.78,0,0,0,1.52-.3,3.23,3.23,0,0,0,1.19-.84,3.79,3.79,0,0,0,.78-1.32,4.93,4.93,0,0,0,.28-1.72V56.47a4.89,4.89,0,0,0-.28-1.72,3.61,3.61,0,0,0-.78-1.32,3.37,3.37,0,0,0-1.19-.85,4,4,0,0,0-1.52-.29,3.91,3.91,0,0,0-1.51.29,3.32,3.32,0,0,0-1.2.85,3.61,3.61,0,0,0-.78,1.32,5.13,5.13,0,0,0-.27,1.72V58.6a5.17,5.17,0,0,0,.27,1.72,3.79,3.79,0,0,0,.78,1.32,3.18,3.18,0,0,0,1.2.84A3.73,3.73,0,0,0,203.66,62.78Z" transform="translate(-6.54 -8.08)"/><path class="cls-1" d="M211.68,63.91V54.48h1.47v1.74h.09A2.7,2.7,0,0,1,216,54.48h.57v1.46h-.86a3.32,3.32,0,0,0-1.86.45,1.34,1.34,0,0,0-.66,1.13v6.39Z" transform="translate(-6.54 -8.08)"/><path class="cls-1" d="M220.55,63.91a1.47,1.47,0,0,1-1.16-.43,1.55,1.55,0,0,1-.4-1.12V55.78h-1.55v-1.3h.88a.83.83,0,0,0,.64-.19,1,1,0,0,0,.18-.67V51.87h1.31v2.61h2.07v1.3h-2.07v6.83h1.92v1.3Z" transform="translate(-6.54 -8.08)"/><path class="cls-1" d="M224.88,50.39h1.46V56h.07a3.13,3.13,0,0,1,1-1.27,2.78,2.78,0,0,1,1.69-.47,3,3,0,0,1,2.31.94,3.83,3.83,0,0,1,.85,2.66v6h-1.46v-5.8c0-1.7-.71-2.55-2.14-2.55a3.48,3.48,0,0,0-.85.11,2.36,2.36,0,0,0-.74.33,1.64,1.64,0,0,0-.52.56,1.54,1.54,0,0,0-.19.79v6.56h-1.46Z" transform="translate(-6.54 -8.08)"/><path class="cls-1" d="M245.12,64a1.12,1.12,0,0,1-.85-.29A1.14,1.14,0,0,1,244,63v-.24a1.11,1.11,0,0,1,.26-.76,1.08,1.08,0,0,1,.85-.3,1,1,0,0,1,1.12,1.06V63A1,1,0,0,1,245.12,64Z" transform="translate(-6.54 -8.08)"/><path class="cls-1" d="M257.56,63.8,256.29,60h-5.16l-1.28,3.76H248.3l4.46-12.75h2l4.45,12.75Zm-3.81-11.33h-.1l-2.15,6.22h4.4Z" transform="translate(-6.54 -8.08)"/><path class="cls-1" d="M12,86.06a5.7,5.7,0,0,1-2.24-.43,4.7,4.7,0,0,1-1.7-1.26A5.9,5.9,0,0,1,7,82.3a9.76,9.76,0,0,1-.38-2.84A9.64,9.64,0,0,1,7,76.63,6.08,6.08,0,0,1,8.1,74.56a4.61,4.61,0,0,1,1.7-1.27A5.7,5.7,0,0,1,12,72.87a5.75,5.75,0,0,1,2.23.42A4.56,4.56,0,0,1,16,74.56a5.9,5.9,0,0,1,1.08,2.07,9.31,9.31,0,0,1,.39,2.83,9.42,9.42,0,0,1-.39,2.84A5.73,5.73,0,0,1,16,84.37a4.65,4.65,0,0,1-1.71,1.26A5.76,5.76,0,0,1,12,86.06Zm0-1.35a3.82,3.82,0,0,0,1.52-.3,3.23,3.23,0,0,0,1.19-.84,3.79,3.79,0,0,0,.78-1.32,5.19,5.19,0,0,0,.27-1.73V78.4a5.23,5.23,0,0,0-.27-1.73,3.79,3.79,0,0,0-.78-1.32,3.48,3.48,0,0,0-1.19-.84A3.81,3.81,0,0,0,12,74.22a3.78,3.78,0,0,0-1.52.29,3.48,3.48,0,0,0-1.19.84,3.79,3.79,0,0,0-.78,1.32,5.23,5.23,0,0,0-.28,1.73v2.12a5.19,5.19,0,0,0,.28,1.73,3.79,3.79,0,0,0,.78,1.32,3.23,3.23,0,0,0,1.19.84A3.78,3.78,0,0,0,12,84.71Z" transform="translate(-6.54 -8.08)"/><path class="cls-1" d="M21.74,85.84H20.21V73.08h5.08a3.53,3.53,0,0,1,2.62.94,3.59,3.59,0,0,1,.94,2.68A3.87,3.87,0,0,1,28.2,79a3.06,3.06,0,0,1-1.91,1.2l2.92,5.63H27.48l-2.76-5.48h-3ZM25.29,79a2,2,0,0,0,1.41-.47,1.77,1.77,0,0,0,.51-1.36v-.95a1.76,1.76,0,0,0-.51-1.35,1.94,1.94,0,0,0-1.41-.47H21.74V79Z" transform="translate(-6.54 -8.08)"/><path class="cls-1" d="M35.76,74.44v11.4H34.22V74.44h-4V73.08h9.64v1.36Z" transform="translate(-6.54 -8.08)"/><path class="cls-1" d="M49.9,80.06H43.45v5.78H41.91V73.08h1.54v5.63H49.9V73.08h1.53V85.84H49.9Z" transform="translate(-6.54 -8.08)"/><path class="cls-1" d="M59.6,86.06a5.73,5.73,0,0,1-2.24-.43,4.7,4.7,0,0,1-1.7-1.26,5.89,5.89,0,0,1-1.08-2.07,9.42,9.42,0,0,1-.39-2.84,9.31,9.31,0,0,1,.39-2.83,6.07,6.07,0,0,1,1.08-2.07,4.61,4.61,0,0,1,1.7-1.27,6.16,6.16,0,0,1,4.47,0,4.56,4.56,0,0,1,1.71,1.27,6.08,6.08,0,0,1,1.09,2.07A9.64,9.64,0,0,1,65,79.46a9.76,9.76,0,0,1-.38,2.84,5.9,5.9,0,0,1-1.09,2.07,4.65,4.65,0,0,1-1.71,1.26A5.72,5.72,0,0,1,59.6,86.06Zm0-1.35a3.78,3.78,0,0,0,1.52-.3,3.35,3.35,0,0,0,1.2-.84,3.93,3.93,0,0,0,.77-1.32,4.94,4.94,0,0,0,.28-1.73V78.4a5,5,0,0,0-.28-1.73,3.93,3.93,0,0,0-.77-1.32,3.62,3.62,0,0,0-1.2-.84,3.78,3.78,0,0,0-1.52-.29,3.73,3.73,0,0,0-1.51.29,3.42,3.42,0,0,0-1.2.84,4,4,0,0,0-.78,1.32,5.23,5.23,0,0,0-.27,1.73v2.12a5.19,5.19,0,0,0,.27,1.73,4,4,0,0,0,.78,1.32,3.18,3.18,0,0,0,1.2.84A3.73,3.73,0,0,0,59.6,84.71Z" transform="translate(-6.54 -8.08)"/><path class="cls-1" d="M67.77,85.84V73.08h5.08a3.45,3.45,0,0,1,2.64,1,4.36,4.36,0,0,1,0,5.36,3.44,3.44,0,0,1-2.64,1H69.31v5.45ZM69.31,79h3.54a2,2,0,0,0,1.42-.47,1.8,1.8,0,0,0,.5-1.36v-.95a1.8,1.8,0,0,0-.5-1.35,2,2,0,0,0-1.42-.47H69.31Z" transform="translate(-6.54 -8.08)"/><path class="cls-1" d="M86,85.84l-1.28-3.77H79.57L78.3,85.84H76.74L81.2,73.08h2l4.45,12.76ZM82.19,74.51H82.1l-2.16,6.21h4.4Z" transform="translate(-6.54 -8.08)"/><path class="cls-1" d="M89.73,85.84V73.08h7.79v1.36H91.27v4.27h5.88v1.35H91.27v4.43h6.25v1.35Z" transform="translate(-6.54 -8.08)"/><path class="cls-1" d="M100.39,73.08h4.27a5.58,5.58,0,0,1,2.16.41,4.24,4.24,0,0,1,1.65,1.19,5.36,5.36,0,0,1,1,2,9.27,9.27,0,0,1,.37,2.78,9.38,9.38,0,0,1-.37,2.79,5.31,5.31,0,0,1-1,2,4.37,4.37,0,0,1-1.65,1.2,5.77,5.77,0,0,1-2.16.4h-4.27Zm4.27,11.41a3.78,3.78,0,0,0,1.45-.27,3,3,0,0,0,1.13-.78,3.52,3.52,0,0,0,.74-1.25,4.88,4.88,0,0,0,.26-1.69V78.42a4.92,4.92,0,0,0-.26-1.69,3.61,3.61,0,0,0-.74-1.25,3.18,3.18,0,0,0-1.13-.78,4,4,0,0,0-1.45-.26h-2.74v10Z" transform="translate(-6.54 -8.08)"/><path class="cls-1" d="M112.05,85.84V84.56h1.79V74.36h-1.79V73.08h5.11v1.28h-1.79v10.2h1.79v1.28Z" transform="translate(-6.54 -8.08)"/><path class="cls-1" d="M124.45,86.06a4.59,4.59,0,0,1-3.78-1.66,7.54,7.54,0,0,1-1.35-4.87,7.87,7.87,0,0,1,1.35-4.94,4.52,4.52,0,0,1,3.78-1.72,4.81,4.81,0,0,1,2.7.72,4.72,4.72,0,0,1,1.69,2l-1.25.75a3.52,3.52,0,0,0-1.16-1.58,3.25,3.25,0,0,0-2-.59,3.31,3.31,0,0,0-1.47.31,2.94,2.94,0,0,0-1.09.89,4.11,4.11,0,0,0-.69,1.37,6.25,6.25,0,0,0-.24,1.79v1.91a4.77,4.77,0,0,0,.92,3.1,3.14,3.14,0,0,0,2.57,1.12,3.27,3.27,0,0,0,2-.63,3.62,3.62,0,0,0,1.2-1.68l1.23.77a4.87,4.87,0,0,1-1.74,2.12A4.77,4.77,0,0,1,124.45,86.06Z" transform="translate(-6.54 -8.08)"/><path class="cls-1" d="M139.2,86.06a5.43,5.43,0,0,1-2.65-.6,5.7,5.7,0,0,1-1.87-1.63l1.14-1a4.89,4.89,0,0,0,1.5,1.36,3.83,3.83,0,0,0,1.93.47,3,3,0,0,0,2.1-.66,2.26,2.26,0,0,0,.72-1.76,1.8,1.8,0,0,0-.55-1.4,4.21,4.21,0,0,0-1.81-.79l-1-.24A6,6,0,0,1,136,78.65a2.89,2.89,0,0,1-.92-2.3,3.36,3.36,0,0,1,.31-1.49,2.84,2.84,0,0,1,.87-1.1,4.06,4.06,0,0,1,1.33-.67,6.16,6.16,0,0,1,1.71-.22,5.36,5.36,0,0,1,2.47.52A4.83,4.83,0,0,1,143.51,75l-1.15.84a3.9,3.9,0,0,0-1.28-1.15,3.76,3.76,0,0,0-1.86-.42,3.16,3.16,0,0,0-1.93.52,1.81,1.81,0,0,0-.71,1.56,1.64,1.64,0,0,0,.6,1.38,4.49,4.49,0,0,0,1.8.74l1,.24a5.36,5.36,0,0,1,2.72,1.28,3.11,3.11,0,0,1,.84,2.28,4,4,0,0,1-.3,1.59,3.21,3.21,0,0,1-.87,1.21,3.91,3.91,0,0,1-1.38.76A5.5,5.5,0,0,1,139.2,86.06Z" transform="translate(-6.54 -8.08)"/><path class="cls-1" d="M147.68,73.08V81a4.74,4.74,0,0,0,.67,2.77,3.44,3.44,0,0,0,4.75,0,4.74,4.74,0,0,0,.68-2.77V73.08h1.53v7.53a10.76,10.76,0,0,1-.24,2.42,4.22,4.22,0,0,1-.8,1.69,3.17,3.17,0,0,1-1.43,1,6.23,6.23,0,0,1-2.17.33,6,6,0,0,1-2.14-.33,3.08,3.08,0,0,1-1.4-1,4.18,4.18,0,0,1-.76-1.69,11.43,11.43,0,0,1-.23-2.42V73.08Z" transform="translate(-6.54 -8.08)"/><path class="cls-1" d="M160.16,85.84h-1.54V73.08h5.08a3.52,3.52,0,0,1,2.62.94,3.59,3.59,0,0,1,1,2.68,3.87,3.87,0,0,1-.65,2.31,3.09,3.09,0,0,1-1.91,1.2l2.92,5.63H165.9l-2.76-5.48h-3ZM163.7,79a2,2,0,0,0,1.42-.47,1.8,1.8,0,0,0,.5-1.36v-.95a1.8,1.8,0,0,0-.5-1.35,2,2,0,0,0-1.42-.47h-3.54V79Z" transform="translate(-6.54 -8.08)"/><path class="cls-1" d="M178.39,84h0a2.55,2.55,0,0,1-1.16,1.48,4.41,4.41,0,0,1-2.39.59,5.34,5.34,0,0,1-2.14-.43A4.63,4.63,0,0,1,171,84.37a6.06,6.06,0,0,1-1.08-2.07,9.1,9.1,0,0,1-.4-2.84,9.33,9.33,0,0,1,.39-2.82A5.83,5.83,0,0,1,171,74.57a4.91,4.91,0,0,1,1.72-1.27,5.54,5.54,0,0,1,2.23-.43,5.15,5.15,0,0,1,2.87.75,5,5,0,0,1,1.77,2l-1.26.77a3.49,3.49,0,0,0-3.38-2.19,3.8,3.8,0,0,0-1.53.3,3.45,3.45,0,0,0-1.2.85,3.79,3.79,0,0,0-.78,1.32,5.23,5.23,0,0,0-.27,1.73v2.07a5.28,5.28,0,0,0,.27,1.73,3.74,3.74,0,0,0,.78,1.33,3.35,3.35,0,0,0,1.23.85,4.5,4.5,0,0,0,2.9.13,3.28,3.28,0,0,0,1-.52,2.39,2.39,0,0,0,.7-.87,2.83,2.83,0,0,0,.26-1.24V80.63H175.5V79.28h4.32v6.56h-1.43Z" transform="translate(-6.54 -8.08)"/><path class="cls-1" d="M182.83,85.84V73.08h7.79v1.36h-6.25v4.27h5.88v1.35h-5.88v4.43h6.25v1.35Z" transform="translate(-6.54 -8.08)"/><path class="cls-1" d="M198.26,86.06a5.7,5.7,0,0,1-2.24-.43,4.61,4.61,0,0,1-1.7-1.26,5.9,5.9,0,0,1-1.09-2.07,9.76,9.76,0,0,1-.38-2.84,9.64,9.64,0,0,1,.38-2.83,6.08,6.08,0,0,1,1.09-2.07,4.53,4.53,0,0,1,1.7-1.27,6.16,6.16,0,0,1,4.47,0,4.61,4.61,0,0,1,1.7,1.27,5.91,5.91,0,0,1,1.09,2.07,9.32,9.32,0,0,1,.38,2.83,9.43,9.43,0,0,1-.38,2.84,5.74,5.74,0,0,1-1.09,2.07,4.7,4.7,0,0,1-1.7,1.26A5.76,5.76,0,0,1,198.26,86.06Zm0-1.35a3.77,3.77,0,0,0,1.51-.3,3.35,3.35,0,0,0,1.2-.84,4,4,0,0,0,.78-1.32,5.19,5.19,0,0,0,.27-1.73V78.4a5.23,5.23,0,0,0-.27-1.73,4,4,0,0,0-.78-1.32,3.62,3.62,0,0,0-1.2-.84,4.1,4.1,0,0,0-3,0,3.62,3.62,0,0,0-1.2.84,3.93,3.93,0,0,0-.77,1.32,5,5,0,0,0-.28,1.73v2.12a4.94,4.94,0,0,0,.28,1.73,3.93,3.93,0,0,0,.77,1.32,3.35,3.35,0,0,0,1.2.84A3.78,3.78,0,0,0,198.26,84.71Z" transform="translate(-6.54 -8.08)"/><path class="cls-1" d="M209.51,78.05,208,75.22h-.06V85.84h-1.5V73.08h1.78l4.65,7.79,1.54,2.83h.05V73.08h1.5V85.84h-1.77Z" transform="translate(-6.54 -8.08)"/><path class="cls-1" d="M173.27,53.28h-.09l-1.08,2.14-3,5.55L166,55.42l-1.08-2.14h-.09V64h-1.5V51.27h2L169,58.14h.1l3.67-6.87h2V64h-1.5Z" transform="translate(-6.54 -8.08)"/><text class="cls-2" transform="translate(226.17 55.54)">o</text></svg>