<svg viewBox="0 0 475.75 100.99" title="iFLY Holdings, Inc" role="img" version="1.1" aria-hidden="true" height="50" width="215" fill= "#142d61" xmlns="http://www.w3.org/2000/svg"><path d="M0,36.7c55.18,28.44,67.91,56.47,76.59,60s32.3,5.71,39.57,3.08,20-13.37,27.59-28.47C103.09,102.57,82.59,54.73,159,0,125.24,15.79,87.12,48.71,70.78,66.54,64.34,65.47,31.21,47.34,0,36.7" fill= "#e72d2d"></path><path d="M78.92,43.48c0,7.91-6.78,14.31-15.14,14.31s-15.13-6.4-15.13-14.31,6.78-14.3,15.13-14.3,15.14,6.42,15.14,14.3" fill= "#e72d2d"></path><path d="M462.87,81.37c0,10.23-9.81,18.52-21.92,18.52H378.07V81.37H435c3.29,0,6-2.26,6-5V68.2H400c-12.11,0-21.93-8.28-21.93-18.52V16.05H400V44.66c0,2.76,2.66,5,5.95,5h35V16.05h21.92Z"></path><path d="M282.54,81.36c0,10.23,9.82,18.52,21.93,18.52h62.87V81.36h-56.9c-3.3,0-6-2.25-6-5V16.05H282.54Z"></path><path d="M187,99.88H209V68.2h62.86V49.68H209V39.59c0-2.77,2.66-5,5.94-5h56.92V16.05H209c-12.12,0-21.93,8.29-21.93,18.52Z"></path><rect x="154.36" y="49.68" width="21.93" height="50.2"></rect><rect x="154.36" y="16.05" width="21.93" height="21.93"></rect><path d="M470.41,15.64a5.21,5.21,0,1,1-5.35,5.19,5.16,5.16,0,0,1,5.35-5.19m0,9.3a4,4,0,0,0,3.92-4.11,3.93,3.93,0,1,0-7.85,0,3.94,3.94,0,0,0,3.93,4.11m-2.08-7h2.2c1.46,0,2.28.46,2.28,1.73a1.45,1.45,0,0,1-1.53,1.55l1.56,2.55h-1.21l-1.42-2.49h-.72v2.49h-1.16Zm1.16,2.43h1c.66,0,1.14-.09,1.14-.8s-.67-.73-1.2-.73h-1Z"></path></svg>